<?xml version="1.0" encoding="utf-8"?>
<!-- Generator: Adobe Illustrator 27.4.0, SVG Export Plug-In . SVG Version: 6.00 Build 0)  -->
<svg version="1.1" id="Layer_1" xmlns="http://www.w3.org/2000/svg" xmlns:xlink="http://www.w3.org/1999/xlink" x="0px" y="0px"
	 viewBox="0 0 32 32" style="enable-background:new 0 0 32 32;" xml:space="preserve">
<style type="text/css">
	.st0{fill:#F15838;}
	.st1{fill:#DA392E;}
	.st2{fill:#FFFFFF;}
</style>
<g>
	<g>
		<path class="st0" d="M31.4,16c0,0.1,0,0.3,0,0.5c-0.2,8.3-6.9,14.9-15.3,14.9c-0.5,0-0.8,0-1.2-0.1C6.9,30.7,0.6,24.1,0.6,16
			C0.6,7.6,7.6,0.6,16,0.6S31.4,7.6,31.4,16z"/>
		<path class="st1" d="M31.4,16.5c-0.2,8.3-6.9,14.9-15.3,14.9c-0.5,0-0.8,0-1.2-0.1l-7.4-7.2l6.6,0.6l4.6-0.2l2.2-1.2l0.1-3.7
			l-2.7-3.5l-4.7-2.2l-2.5-1.7l0.5-3.1l2.8-1.5L18.9,7l2,0.1l2.7,0.6L31.4,16.5z"/>
		<g>
			<path class="st2" d="M21.8,11.6c-0.1-0.1-0.2-0.2-0.7-0.5s-0.8-0.5-1.4-0.7c-0.6-0.2-1.2-0.5-1.7-0.7c-0.7-0.2-1.3-0.3-2-0.3
				c-0.8,0-1.5,0.1-2,0.5c-0.5,0.3-0.7,0.8-0.7,1.5c0,0.5,0.2,0.9,0.6,1.2c0.3,0.3,0.9,0.6,1.5,0.7c0.7,0.2,1.5,0.5,2.4,0.7
				c1.4,0.3,2.5,0.8,3.6,1.3c1,0.6,1.7,1.2,2.3,2c0.6,0.8,0.8,1.8,0.8,3.2c0,1.2-0.2,2.2-0.7,3c-0.5,0.8-1,1.5-1.7,2
				c-0.8,0.6-1.6,0.9-2.5,1.2c-0.9,0.2-2,0.3-3,0.3s-2.1-0.1-3.2-0.3c-1-0.2-2.1-0.6-3.1-0.9c-0.8-0.3-1.5-0.7-2.1-1
				c-0.3-0.2-0.6-0.7-0.3-1.2l1.8-3.6c0.1,0.1,0.3,0.3,0.8,0.6c0.5,0.3,1,0.6,1.6,0.8c0.6,0.2,1.2,0.5,1.7,0.7
				c0.9,0.2,1.7,0.5,2.7,0.5c1,0,1.7-0.1,2.2-0.5s0.7-0.7,0.7-1.2c0-0.6-0.2-0.9-0.7-1.3c-0.5-0.3-1-0.6-1.8-0.8s-1.6-0.6-2.7-0.8
				c-1.3-0.5-2.3-0.8-3.2-1.4c-0.8-0.5-1.5-1.2-1.8-1.8C8.6,13.9,8.5,13,8.5,12c0-1.5,0.3-2.8,1-3.8c0.7-1,1.6-1.8,2.9-2.3
				C13.6,5.3,15,5,16.3,5c1,0,2,0.1,2.9,0.3c0.9,0.2,1.8,0.6,2.5,0.9c0.6,0.3,1.2,0.6,1.7,0.8c0.2,0.2,0.3,0.6,0.2,0.9L21.8,11.6z"
				/>
		</g>
	</g>
</g>
</svg>
