<?xml version="1.0" encoding="UTF-8"?>
<svg id="Layer_1" data-name="Layer 1" xmlns="http://www.w3.org/2000/svg" viewBox="0 0 116 32">
  <defs>
    <style>
      .cls-1 {
        fill: #fff;
      }

      .cls-2 {
        fill: #f15838;
      }

      .cls-3 {
        fill: #da392e;
      }
    </style>
  </defs>
  <g>
    <path class="cls-2" d="m26.6,16v.4c-.2,7.2-6,12.9-13.2,12.9-.4,0-.7,0-1-.1-7-.5-12.4-6.2-12.4-13.2S6,2.7,13.3,2.7s13.3,6,13.3,13.3Z"/>
    <path class="cls-3" d="m26.6,16.4c-.2,7.2-6,12.9-13.2,12.9-.4,0-.7,0-1-.1l-6.4-6.2,5.7.5,4-.2,1.9-1,.1-3.2-2.3-3-4.1-1.9-2.2-1.5.4-2.7,2.4-1.3,3.9-.5,1.7.1,2.3.5,6.8,7.6Z"/>
    <path class="cls-1" d="m18.3,12.2c-.1-.1-.2-.2-.6-.4s-.7-.4-1.2-.6c-.5-.2-1-.4-1.5-.6-.6-.2-1.1-.3-1.7-.3-.7,0-1.3.1-1.7.4-.4.3-.6.7-.6,1.3,0,.4.2.8.5,1,.3.3.8.5,1.3.6.6.2,1.3.4,2.1.6,1.2.3,2.2.7,3.1,1.1.9.5,1.5,1,2,1.7s.7,1.6.7,2.8c0,1-.2,1.9-.6,2.6s-.9,1.3-1.5,1.7c-.7.5-1.4.8-2.2,1-.8.2-1.7.3-2.6.3s-1.8-.1-2.8-.3c-.9-.2-1.8-.5-2.7-.8-.7-.3-1.3-.6-1.8-.9-.3-.2-.5-.6-.3-1l1.6-3.1c.1.1.3.3.7.5.4.3.9.5,1.4.7s1,.4,1.5.6c.8.2,1.5.4,2.3.4.9,0,1.5-.1,1.9-.4s.6-.6.6-1c0-.5-.2-.8-.6-1.1-.4-.3-.9-.5-1.6-.7-.7-.2-1.4-.5-2.3-.7-1.1-.4-2-.7-2.8-1.2-.7-.4-1.3-1-1.6-1.6-.4-.6-.5-1.4-.5-2.3,0-1.3.3-2.4.9-3.3.6-.9,1.4-1.6,2.5-2,1-.5,2.2-.7,3.4-.7.9,0,1.7.1,2.5.3.8.2,1.6.5,2.2.8.5.3,1,.5,1.5.7.2.2.3.5.2.8l-1.7,3.1Z"/>
  </g>
  <path class="cls-1" d="m30.5,25.3V6.7h4.3v8l6.8-8h4.8l-7,8.3,7.4,10.3h-4.9l-5.3-7.5-1.9,2v5.5h-4.2Z"/>
  <path class="cls-1" d="m52.5,6.7l4,8.2,4-8.2h4.7l-6.6,12.3v6.3h-4.2v-6.4l-6.6-12.2h4.7Z"/>
  <path class="cls-1" d="m82.4,20.5c0,1.1-.3,1.9-.9,2.7-.6.7-1.3,1.2-2.3,1.6s-2,.5-3.2.5h-9V6.7h10.3c.9,0,1.6.3,2.2.7.6.5,1.1,1.1,1.5,1.8s.5,1.5.5,2.3c0,.9-.2,1.7-.7,2.5s-1.1,1.4-2,1.8c1.1.3,1.9.9,2.5,1.7.8.7,1.1,1.8,1.1,3Zm-11-10.1v3.8h4.2c.3,0,.6-.1.9-.2.3-.2.5-.4.7-.7s.3-.7.3-1.1-.1-.8-.2-1c-.2-.3-.4-.5-.6-.7-.3-.2-.5-.2-.8-.2-.2.1-4.5.1-4.5.1Zm6.6,9.3c0-.4-.1-.8-.3-1.1-.2-.3-.4-.6-.6-.7-.3-.2-.6-.3-.9-.3h-4.9v4h4.8c.4,0,.7-.1,1-.3s.5-.4.7-.7c.1-.2.2-.6.2-.9Z"/>
  <path class="cls-1" d="m100.4,25.3V6.7h8.4c.9,0,1.7.2,2.4.5.7.4,1.4.8,1.9,1.4.6.6,1,1.3,1.3,2,.3.8.5,1.5.5,2.3s-.1,1.5-.4,2.2-.6,1.3-1,1.8c-.5.6-1,1-1.6,1.3l4.1,6.9h-4.8l-3.6-6h-2.9v6l-4.3.2h0Zm4.3-9.8h3.9c.4,0,.7-.1.9-.3s.5-.5.7-.9.3-.8.3-1.3-.1-1-.3-1.3c-.2-.4-.5-.7-.8-.9s-.6-.3-.9-.3h-3.8s0,5,0,5Z"/>
  <rect class="cls-1" x="84.6" y="6.7" width="12.8" height="3.8"/>
  <rect class="cls-1" x="84.6" y="14.1" width="12.8" height="3.8"/>
  <rect class="cls-1" x="84.6" y="21.5" width="12.8" height="3.8"/>
</svg>